<?xml version="1.0" encoding="UTF-8" standalone="no"?>
<!DOCTYPE svg PUBLIC "-//W3C//DTD SVG 1.1//EN" "http://www.w3.org/Graphics/SVG/1.1/DTD/svg11.dtd">
<!-- Generated by graphviz version 2.40.1 (20161225.0304)
 -->
<!-- Title: %0 Pages: 1 -->
<svg xmlns="http://www.w3.org/2000/svg" xmlns:xlink="http://www.w3.org/1999/xlink" width="1991pt" height="288pt" viewBox="0.00 0.00 1991.40 288.00">
  <g id="graph0" class="graph" transform="scale(1 1) rotate(0) translate(4 284)">
    <title>%0</title>
    <g id="a_graph0">
      <a xlink:title=" ">
        <polygon fill="#ffffff" stroke="transparent" points="-4,4 -4,-284 1987.405,-284 1987.405,4 -4,4"/>
<text text-anchor="left" x="6" y="-6" font-family="Helvetica,sans-Serif" font-size="55.00" fill="#ababab">4420</text>
      </a>
    </g>
    <!-- 1 -->
    <g id="node1" class="node">
      <title>1</title>
      <path fill="#ffffff" stroke="#ffffff" stroke-width="14" d="M527.7188,-280C527.7188,-280 12.0937,-280 12.0937,-280 6.0937,-280 .0937,-274 .0937,-268 .0937,-268 .0937,-12 .0937,-12 .0937,-6 6.0937,0 12.0937,0 12.0937,0 527.7188,0 527.7188,0 533.7188,0 539.7188,-6 539.7188,-12 539.7188,-12 539.7188,-268 539.7188,-268 539.7188,-274 533.7188,-280 527.7188,-280"/>
      <text text-anchor="middle" x="269.9063" y="-102.5" font-family="Helvetica,sans-Serif" font-size="125.00" fill="#000000">Income</text>
    </g>
    <!-- 2 -->
    <g id="node2" class="node">
      <title>2</title>
      <path fill="#7fc97f" stroke="#ffffff" stroke-width="14" d="M1971.6113,-280C1971.6113,-280 878.7862,-280 878.7862,-280 872.7862,-280 866.7862,-274 866.7862,-268 866.7862,-268 866.7862,-12 866.7862,-12 866.7862,-6 872.7862,0 878.7862,0 878.7862,0 1971.6113,0 1971.6113,0 1977.6113,0 1983.6113,-6 1983.6113,-12 1983.6113,-12 1983.6113,-268 1983.6113,-268 1983.6113,-274 1977.6113,-280 1971.6113,-280"/>
      <text text-anchor="middle" x="1425.1988" y="-102.5" font-family="Helvetica,sans-Serif" font-size="125.00" fill="#000000">Ability to buy food</text>
    </g>
    <!-- 1&#45;&gt;2 -->
    <g id="edge1" class="edge">
      <title>1-&gt;2</title>
      <g id="a_edge1">
        <a xlink:title="Income / Ability to buy food">
          <path fill="none" stroke="#058488" stroke-width="48" d="M540.0417,-140C603.4681,-140 673.8762,-140 746.4831,-140"/>
          <polygon fill="#058488" stroke="#058488" stroke-width="48" points="866.784,-140 746.7841,-194.0001 806.784,-163.5 746.784,-163.5001 746.784,-140.0001 746.784,-116.5001 806.784,-116.5 746.784,-86.0001 866.784,-140 866.784,-140"/>
        </a>
      </g>
      <text text-anchor="middle" x="703.4025" y="-170" font-family="Helvetica,sans-Serif" font-size="100.00" fill="#000000">11</text>
    </g>
  </g>
</svg>
