<?xml version="1.0" encoding="UTF-8" standalone="no"?>
<!DOCTYPE svg PUBLIC "-//W3C//DTD SVG 1.1//EN" "http://www.w3.org/Graphics/SVG/1.1/DTD/svg11.dtd">
<!-- Generated by graphviz version 2.40.1 (20161225.0304)
 -->
<!-- Title: %0 Pages: 1 -->
<svg xmlns="http://www.w3.org/2000/svg" xmlns:xlink="http://www.w3.org/1999/xlink" width="3477pt" height="862pt" viewBox="0.00 0.00 3476.66 862.00">
  <g id="graph0" class="graph" transform="scale(1 1) rotate(0) translate(4 858)">
    <title>%0</title>
    <g id="a_graph0">
      <a xlink:title=" ">
        <polygon fill="#ffffff" stroke="transparent" points="-4,4 -4,-858 3472.66,-858 3472.66,4 -4,4"/>
<text text-anchor="left" x="6" y="-6" font-family="Helvetica,sans-Serif" font-size="55.00" fill="#ababab">4419</text>
      </a>
    </g>
    <!-- 1 -->
    <g id="node1" class="node">
      <title>1</title>
      <path fill="#ffffff" stroke="#ffffff" stroke-width="14" d="M527.7188,-529C527.7188,-529 12.0937,-529 12.0937,-529 6.0937,-529 .0937,-523 .0937,-517 .0937,-517 .0937,-261 .0937,-261 .0937,-255 6.0937,-249 12.0937,-249 12.0937,-249 527.7188,-249 527.7188,-249 533.7188,-249 539.7188,-255 539.7188,-261 539.7188,-261 539.7188,-517 539.7188,-517 539.7188,-523 533.7188,-529 527.7188,-529"/>
      <text text-anchor="middle" x="269.9063" y="-351.5" font-family="Helvetica,sans-Serif" font-size="125.00" fill="#000000">Income</text>
    </g>
    <!-- 2 -->
    <g id="node2" class="node">
      <title>2</title>
      <path fill="#7fc97f" stroke="#ffffff" stroke-width="14" d="M1971.6113,-529C1971.6113,-529 878.7862,-529 878.7862,-529 872.7862,-529 866.7862,-523 866.7862,-517 866.7862,-517 866.7862,-261 866.7862,-261 866.7862,-255 872.7862,-249 878.7862,-249 878.7862,-249 1971.6113,-249 1971.6113,-249 1977.6113,-249 1983.6113,-255 1983.6113,-261 1983.6113,-261 1983.6113,-517 1983.6113,-517 1983.6113,-523 1977.6113,-529 1971.6113,-529"/>
      <text text-anchor="middle" x="1425.1988" y="-351.5" font-family="Helvetica,sans-Serif" font-size="125.00" fill="#000000">Ability to buy food</text>
    </g>
    <!-- 3 -->
    <g id="node3" class="node">
      <title>3</title>
      <path fill="#ffffff" stroke="#ffffff" stroke-width="14" d="M3456.6975,-854C3456.6975,-854 2322.5475,-854 2322.5475,-854 2316.5475,-854 2310.5475,-848 2310.5475,-842 2310.5475,-842 2310.5475,-436 2310.5475,-436 2310.5475,-430 2316.5475,-424 2322.5475,-424 2322.5475,-424 3456.6975,-424 3456.6975,-424 3462.6975,-424 3468.6975,-430 3468.6975,-436 3468.6975,-436 3468.6975,-842 3468.6975,-842 3468.6975,-848 3462.6975,-854 3456.6975,-854"/>
      <text text-anchor="middle" x="2889.6225" y="-676.5" font-family="Helvetica,sans-Serif" font-size="125.00" fill="#000000">Food consumption</text>
      <text text-anchor="middle" x="2889.6225" y="-526.5" font-family="Helvetica,sans-Serif" font-size="125.00" fill="#000000">quantity</text>
    </g>
    <!-- 4 -->
    <g id="node4" class="node">
      <title>4</title>
      <path fill="#ffffff" stroke="#ffffff" stroke-width="14" d="M3327.9725,-280C3327.9725,-280 2451.2725,-280 2451.2725,-280 2445.2725,-280 2439.2725,-274 2439.2725,-268 2439.2725,-268 2439.2725,-12 2439.2725,-12 2439.2725,-6 2445.2725,0 2451.2725,0 2451.2725,0 3327.9725,0 3327.9725,0 3333.9725,0 3339.9725,-6 3339.9725,-12 3339.9725,-12 3339.9725,-268 3339.9725,-268 3339.9725,-274 3333.9725,-280 3327.9725,-280"/>
      <text text-anchor="middle" x="2889.6225" y="-102.5" font-family="Helvetica,sans-Serif" font-size="125.00" fill="#000000">Diet improved</text>
    </g>
    <!-- 1&#45;&gt;2 -->
    <g id="edge1" class="edge">
      <title>1-&gt;2</title>
      <g id="a_edge1">
        <a xlink:title="Income / Ability to buy food">
          <path fill="none" stroke="#058488" stroke-width="48" d="M540.0417,-389C603.4681,-389 673.8762,-389 746.4831,-389"/>
          <polygon fill="#058488" stroke="#058488" stroke-width="48" points="866.784,-389 746.7841,-443.0001 806.784,-412.5 746.784,-412.5001 746.784,-389.0001 746.784,-365.5001 806.784,-365.5 746.784,-335.0001 866.784,-389 866.784,-389"/>
        </a>
      </g>
      <text text-anchor="middle" x="703.4025" y="-419" font-family="Helvetica,sans-Serif" font-size="100.00" fill="#000000">11</text>
    </g>
    <!-- 2&#45;&gt;3 -->
    <g id="edge2" class="edge">
      <title>2-&gt;3</title>
      <g id="a_edge2">
        <a xlink:title="Ability to buy food / Food consumption quantity">
          <path fill="none" stroke="#058488" stroke-width="44.0727" d="M1983.5347,-484.3167C2054.047,-496.3542 2126.8426,-508.7816 2199.0953,-521.1162"/>
          <polygon fill="#058488" stroke="#058488" stroke-width="44.0727" points="2310.341,-540.1076 2190.7813,-571.1165 2251.2018,-551.8595 2195.6867,-542.3822 2199.3109,-521.1529 2202.9351,-499.9237 2258.4501,-509.401 2207.8405,-471.1894 2310.341,-540.1076 2310.341,-540.1076"/>
        </a>
      </g>
      <text text-anchor="middle" x="2146.995" y="-551" font-family="Helvetica,sans-Serif" font-size="100.00" fill="#000000">10</text>
    </g>
    <!-- 2&#45;&gt;4 -->
    <g id="edge3" class="edge">
      <title>2-&gt;4</title>
      <g id="a_edge3">
        <a xlink:title="Ability to buy food / Diet improved">
          <path fill="none" stroke="#058488" stroke-width="44.0727" d="M1983.5347,-294.0646C2096.3422,-274.8836 2214.9939,-254.709 2327.9166,-235.5084"/>
          <polygon fill="#058488" stroke="#058488" stroke-width="44.0727" points="2439.0632,-216.6098 2336.5171,-285.46 2387.152,-247.2819 2331.6307,-256.7224 2328.0206,-235.4908 2324.4105,-214.2592 2379.9318,-204.8187 2319.5242,-185.5216 2439.0632,-216.6098 2439.0632,-216.6098"/>
        </a>
      </g>
      <text text-anchor="middle" x="2146.995" y="-301" font-family="Helvetica,sans-Serif" font-size="100.00" fill="#000000">10</text>
    </g>
  </g>
</svg>
