<?xml version="1.0" encoding="UTF-8" standalone="no"?>
<!DOCTYPE svg PUBLIC "-//W3C//DTD SVG 1.1//EN" "http://www.w3.org/Graphics/SVG/1.1/DTD/svg11.dtd">
<!-- Generated by graphviz version 2.40.1 (20161225.0304)
 -->
<!-- Title: %0 Pages: 1 -->
<svg xmlns="http://www.w3.org/2000/svg" xmlns:xlink="http://www.w3.org/1999/xlink" width="11459pt" height="3195pt" viewBox="0.00 0.00 11458.59 3195.00">
  <g id="graph0" class="graph" transform="scale(1 1) rotate(0) translate(4 3191)">
    <title>%0</title>
    <g id="a_graph0">
      <a xlink:title=" ">
        <polygon fill="#ffffff" stroke="transparent" points="-4,4 -4,-3191 11454.59,-3191 11454.59,4 -4,4"/>
<text text-anchor="left" x="6" y="-6" font-family="Helvetica,sans-Serif" font-size="55.00" fill="#ababab">4418</text>
      </a>
    </g>
    <!-- 1 -->
    <g id="node1" class="node">
      <title>1</title>
      <path fill="#ffffff" stroke="#ffffff" stroke-width="14" d="M4199.685,-2044C4199.685,-2044 3184.035,-2044 3184.035,-2044 3178.035,-2044 3172.035,-2038 3172.035,-2032 3172.035,-2032 3172.035,-1776 3172.035,-1776 3172.035,-1770 3178.035,-1764 3184.035,-1764 3184.035,-1764 4199.685,-1764 4199.685,-1764 4205.685,-1764 4211.685,-1770 4211.685,-1776 4211.685,-1776 4211.685,-2032 4211.685,-2032 4211.685,-2038 4205.685,-2044 4199.685,-2044"/>
      <text text-anchor="middle" x="3691.86" y="-1866.5" font-family="Helvetica,sans-Serif" font-size="125.00" fill="#000000">Farm production</text>
    </g>
    <!-- 2 -->
    <g id="node2" class="node">
      <title>2</title>
      <path fill="#ffffff" stroke="#ffffff" stroke-width="14" d="M1333.4938,-1943C1333.4938,-1943 12.1687,-1943 12.1687,-1943 6.1687,-1943 .1687,-1937 .1687,-1931 .1687,-1931 .1687,-1375 .1687,-1375 .1687,-1369 6.1687,-1363 12.1687,-1363 12.1687,-1363 1333.4938,-1363 1333.4938,-1363 1339.4938,-1363 1345.4938,-1369 1345.4938,-1375 1345.4938,-1375 1345.4938,-1931 1345.4938,-1931 1345.4938,-1937 1339.4938,-1943 1333.4938,-1943"/>
      <text text-anchor="middle" x="672.8312" y="-1765.5" font-family="Helvetica,sans-Serif" font-size="125.00" fill="#000000">Increased knowledge;</text>
      <text text-anchor="middle" x="672.8312" y="-1615.5" font-family="Helvetica,sans-Serif" font-size="125.00" fill="#000000">Farming method/</text>
      <text text-anchor="middle" x="672.8312" y="-1465.5" font-family="Helvetica,sans-Serif" font-size="125.00" fill="#000000">practice</text>
    </g>
    <!-- 3 -->
    <g id="node3" class="node">
      <title>3</title>
      <path fill="#ffffff" stroke="#ffffff" stroke-width="14" d="M2832.73,-1616C2832.73,-1616 1684.88,-1616 1684.88,-1616 1678.88,-1616 1672.88,-1610 1672.88,-1604 1672.88,-1604 1672.88,-1198 1672.88,-1198 1672.88,-1192 1678.88,-1186 1684.88,-1186 1684.88,-1186 2832.73,-1186 2832.73,-1186 2838.73,-1186 2844.73,-1192 2844.73,-1198 2844.73,-1198 2844.73,-1604 2844.73,-1604 2844.73,-1610 2838.73,-1616 2832.73,-1616"/>
      <text text-anchor="middle" x="2258.805" y="-1438.5" font-family="Helvetica,sans-Serif" font-size="125.00" fill="#000000">Planted new crop/</text>
      <text text-anchor="middle" x="2258.805" y="-1288.5" font-family="Helvetica,sans-Serif" font-size="125.00" fill="#000000">vegetable varieties</text>
    </g>
    <!-- 4 -->
    <g id="node4" class="node">
      <title>4</title>
      <path fill="#7fc97f" stroke="#ffffff" stroke-width="14" d="M5865.6313,-2850C5865.6313,-2850 4495.6062,-2850 4495.6062,-2850 4489.6062,-2850 4483.6062,-2844 4483.6062,-2838 4483.6062,-2838 4483.6062,-2432 4483.6062,-2432 4483.6062,-2426 4489.6062,-2420 4495.6062,-2420 4495.6062,-2420 5865.6313,-2420 5865.6313,-2420 5871.6313,-2420 5877.6313,-2426 5877.6313,-2432 5877.6313,-2432 5877.6313,-2838 5877.6313,-2838 5877.6313,-2844 5871.6313,-2850 5865.6313,-2850"/>
      <text text-anchor="middle" x="5180.6187" y="-2672.5" font-family="Helvetica,sans-Serif" font-size="125.00" fill="#000000">Produced enough food</text>
      <text text-anchor="middle" x="5180.6187" y="-2522.5" font-family="Helvetica,sans-Serif" font-size="125.00" fill="#000000">to eat and/or sell</text>
    </g>
    <!-- 5 -->
    <g id="node5" class="node">
      <title>5</title>
      <path fill="#ffffff" stroke="#ffffff" stroke-width="14" d="M6677.1838,-2344C6677.1838,-2344 6161.5587,-2344 6161.5587,-2344 6155.5587,-2344 6149.5587,-2338 6149.5587,-2332 6149.5587,-2332 6149.5587,-2076 6149.5587,-2076 6149.5587,-2070 6155.5587,-2064 6161.5587,-2064 6161.5587,-2064 6677.1838,-2064 6677.1838,-2064 6683.1838,-2064 6689.1838,-2070 6689.1838,-2076 6689.1838,-2076 6689.1838,-2332 6689.1838,-2332 6689.1838,-2338 6683.1838,-2344 6677.1838,-2344"/>
      <text text-anchor="middle" x="6419.3712" y="-2166.5" font-family="Helvetica,sans-Serif" font-size="125.00" fill="#000000">Income</text>
    </g>
    <!-- 6 -->
    <g id="node6" class="node">
      <title>6</title>
      <path fill="#ffffff" stroke="#ffffff" stroke-width="14" d="M8305.1013,-2433C8305.1013,-2433 7073.4762,-2433 7073.4762,-2433 7067.4762,-2433 7061.4762,-2427 7061.4762,-2421 7061.4762,-2421 7061.4762,-2015 7061.4762,-2015 7061.4762,-2009 7067.4762,-2003 7073.4762,-2003 7073.4762,-2003 8305.1013,-2003 8305.1013,-2003 8311.1013,-2003 8317.1013,-2009 8317.1013,-2015 8317.1013,-2015 8317.1013,-2421 8317.1013,-2421 8317.1013,-2427 8311.1013,-2433 8305.1013,-2433"/>
      <text text-anchor="middle" x="7689.2887" y="-2255.5" font-family="Helvetica,sans-Serif" font-size="125.00" fill="#000000">Increase purchasing</text>
      <text text-anchor="middle" x="7689.2887" y="-2105.5" font-family="Helvetica,sans-Serif" font-size="125.00" fill="#000000">power</text>
    </g>
    <!-- 7 -->
    <g id="node7" class="node">
      <title>7</title>
      <path fill="#ffffff" stroke="#ffffff" stroke-width="14" d="M11438.6275,-2190C11438.6275,-2190 10436.4775,-2190 10436.4775,-2190 10430.4775,-2190 10424.4775,-2184 10424.4775,-2178 10424.4775,-2178 10424.4775,-1922 10424.4775,-1922 10424.4775,-1916 10430.4775,-1910 10436.4775,-1910 10436.4775,-1910 11438.6275,-1910 11438.6275,-1910 11444.6275,-1910 11450.6275,-1916 11450.6275,-1922 11450.6275,-1922 11450.6275,-2178 11450.6275,-2178 11450.6275,-2184 11444.6275,-2190 11438.6275,-2190"/>
      <text text-anchor="middle" x="10937.5525" y="-2012.5" font-family="Helvetica,sans-Serif" font-size="125.00" fill="#000000">Improved health</text>
    </g>
    <!-- 8 -->
    <g id="node8" class="node">
      <title>8</title>
      <path fill="#7fc97f" stroke="#ffffff" stroke-width="14" d="M10140.7375,-2713C10140.7375,-2713 8701.4875,-2713 8701.4875,-2713 8695.4875,-2713 8689.4875,-2707 8689.4875,-2701 8689.4875,-2701 8689.4875,-2145 8689.4875,-2145 8689.4875,-2139 8695.4875,-2133 8701.4875,-2133 8701.4875,-2133 10140.7375,-2133 10140.7375,-2133 10146.7375,-2133 10152.7375,-2139 10152.7375,-2145 10152.7375,-2145 10152.7375,-2701 10152.7375,-2701 10152.7375,-2707 10146.7375,-2713 10140.7375,-2713"/>
      <text text-anchor="middle" x="9421.1125" y="-2535.5" font-family="Helvetica,sans-Serif" font-size="125.00" fill="#000000">Health behaviour; Wash</text>
      <text text-anchor="middle" x="9421.1125" y="-2385.5" font-family="Helvetica,sans-Serif" font-size="125.00" fill="#000000">food before cooking/</text>
      <text text-anchor="middle" x="9421.1125" y="-2235.5" font-family="Helvetica,sans-Serif" font-size="125.00" fill="#000000">eating</text>
    </g>
    <!-- 9 -->
    <g id="node9" class="node">
      <title>9</title>
      <path fill="#7fc97f" stroke="#ffffff" stroke-width="14" d="M8235.7013,-1859C8235.7013,-1859 7142.8762,-1859 7142.8762,-1859 7136.8762,-1859 7130.8762,-1853 7130.8762,-1847 7130.8762,-1847 7130.8762,-1591 7130.8762,-1591 7130.8762,-1585 7136.8762,-1579 7142.8762,-1579 7142.8762,-1579 8235.7013,-1579 8235.7013,-1579 8241.7013,-1579 8247.7013,-1585 8247.7013,-1591 8247.7013,-1591 8247.7013,-1847 8247.7013,-1847 8247.7013,-1853 8241.7013,-1859 8235.7013,-1859"/>
      <text text-anchor="middle" x="7689.2887" y="-1681.5" font-family="Helvetica,sans-Serif" font-size="125.00" fill="#000000">Ability to buy food</text>
    </g>
    <!-- 10 -->
    <g id="node10" class="node">
      <title>10</title>
      <path fill="#7fc97f" stroke="#ffffff" stroke-width="14" d="M5733.9313,-1868C5733.9313,-1868 4627.3062,-1868 4627.3062,-1868 4621.3062,-1868 4615.3062,-1862 4615.3062,-1856 4615.3062,-1856 4615.3062,-1450 4615.3062,-1450 4615.3062,-1444 4621.3062,-1438 4627.3062,-1438 4627.3062,-1438 5733.9313,-1438 5733.9313,-1438 5739.9313,-1438 5745.9313,-1444 5745.9313,-1450 5745.9313,-1450 5745.9313,-1856 5745.9313,-1856 5745.9313,-1862 5739.9313,-1868 5733.9313,-1868"/>
      <text text-anchor="middle" x="5180.6187" y="-1690.5" font-family="Helvetica,sans-Serif" font-size="125.00" fill="#000000">Able to save/store</text>
      <text text-anchor="middle" x="5180.6187" y="-1540.5" font-family="Helvetica,sans-Serif" font-size="125.00" fill="#000000">food</text>
    </g>
    <!-- 11 -->
    <g id="node11" class="node">
      <title>11</title>
      <path fill="#ffffff" stroke="#ffffff" stroke-width="14" d="M9876.7001,-580C9876.7001,-580 8965.5249,-580 8965.5249,-580 8959.5249,-580 8953.5249,-574 8953.5249,-568 8953.5249,-568 8953.5249,-12 8953.5249,-12 8953.5249,-6 8959.5249,0 8965.5249,0 8965.5249,0 9876.7001,0 9876.7001,0 9882.7001,0 9888.7001,-6 9888.7001,-12 9888.7001,-12 9888.7001,-568 9888.7001,-568 9888.7001,-574 9882.7001,-580 9876.7001,-580"/>
      <text text-anchor="middle" x="9421.1125" y="-402.5" font-family="Helvetica,sans-Serif" font-size="125.00" fill="#000000">Diet improved;</text>
      <text text-anchor="middle" x="9421.1125" y="-252.5" font-family="Helvetica,sans-Serif" font-size="125.00" fill="#000000">Diversified</text>
      <text text-anchor="middle" x="9421.1125" y="-102.5" font-family="Helvetica,sans-Serif" font-size="125.00" fill="#000000">refers:infants</text>
    </g>
    <!-- 12 -->
    <g id="node12" class="node">
      <title>12</title>
      <path fill="#7fc97f" stroke="#ffffff" stroke-width="14" d="M9988.1875,-1989C9988.1875,-1989 8854.0375,-1989 8854.0375,-1989 8848.0375,-1989 8842.0375,-1983 8842.0375,-1977 8842.0375,-1977 8842.0375,-1571 8842.0375,-1571 8842.0375,-1565 8848.0375,-1559 8854.0375,-1559 8854.0375,-1559 9988.1875,-1559 9988.1875,-1559 9994.1875,-1559 10000.1875,-1565 10000.1875,-1571 10000.1875,-1571 10000.1875,-1977 10000.1875,-1977 10000.1875,-1983 9994.1875,-1989 9988.1875,-1989"/>
      <text text-anchor="middle" x="9421.1125" y="-1811.5" font-family="Helvetica,sans-Serif" font-size="125.00" fill="#000000">Food consumption</text>
      <text text-anchor="middle" x="9421.1125" y="-1661.5" font-family="Helvetica,sans-Serif" font-size="125.00" fill="#000000">quantity</text>
    </g>
    <!-- 13 -->
    <g id="node13" class="node">
      <title>13</title>
      <path fill="#ffffff" stroke="#ffffff" stroke-width="14" d="M8349.9513,-505C8349.9513,-505 7028.6262,-505 7028.6262,-505 7022.6262,-505 7016.6262,-499 7016.6262,-493 7016.6262,-493 7016.6262,-87 7016.6262,-87 7016.6262,-81 7022.6262,-75 7028.6262,-75 7028.6262,-75 8349.9513,-75 8349.9513,-75 8355.9513,-75 8361.9513,-81 8361.9513,-87 8361.9513,-87 8361.9513,-493 8361.9513,-493 8361.9513,-499 8355.9513,-505 8349.9513,-505"/>
      <text text-anchor="middle" x="7689.2887" y="-327.5" font-family="Helvetica,sans-Serif" font-size="125.00" fill="#000000">Increased knowledge;</text>
      <text text-anchor="middle" x="7689.2887" y="-177.5" font-family="Helvetica,sans-Serif" font-size="125.00" fill="#000000">Nutrition</text>
    </g>
    <!-- 14 -->
    <g id="node14" class="node">
      <title>14</title>
      <path fill="#ffffff" stroke="#ffffff" stroke-width="14" d="M9876.7001,-1415C9876.7001,-1415 8965.5249,-1415 8965.5249,-1415 8959.5249,-1415 8953.5249,-1409 8953.5249,-1403 8953.5249,-1403 8953.5249,-997 8953.5249,-997 8953.5249,-991 8959.5249,-985 8965.5249,-985 8965.5249,-985 9876.7001,-985 9876.7001,-985 9882.7001,-985 9888.7001,-991 9888.7001,-997 9888.7001,-997 9888.7001,-1403 9888.7001,-1403 9888.7001,-1409 9882.7001,-1415 9876.7001,-1415"/>
      <text text-anchor="middle" x="9421.1125" y="-1237.5" font-family="Helvetica,sans-Serif" font-size="125.00" fill="#000000">Diet improved;</text>
      <text text-anchor="middle" x="9421.1125" y="-1087.5" font-family="Helvetica,sans-Serif" font-size="125.00" fill="#000000">Diversified</text>
    </g>
    <!-- 1&#45;&gt;4 -->
    <g id="edge1" class="edge">
      <title>1-&gt;4</title>
      <g id="a_edge1">
        <a xlink:title="Farm production / Produced enough food to eat and/or sell">
          <path fill="none" stroke="#058488" stroke-width="15.9086" d="M3920.5855,-2044.0229C4038.1148,-2113.7755 4184.6826,-2197.4199 4319.7725,-2265 4408.8835,-2309.5787 4504.6336,-2354.0068 4598.7443,-2395.8043"/>
          <polygon fill="#058488" stroke="#058488" stroke-width="15.9086" points="4653.5132,-2419.921 4587.9082,-2420.4501 4623.1316,-2414.6878 4595.7539,-2402.6324 4598.758,-2395.8103 4601.762,-2388.9881 4629.1397,-2401.0434 4609.6078,-2371.1704 4653.5132,-2419.921 4653.5132,-2419.921"/>
        </a>
      </g>
      <text text-anchor="middle" x="4347.5675" y="-2317" font-family="Helvetica,sans-Serif" font-size="100.00" fill="#000000">9</text>
    </g>
    <!-- 1&#45;&gt;5 -->
    <g id="edge2" class="edge">
      <title>1-&gt;5</title>
      <g id="a_edge2">
        <a xlink:title="Farm production / Income">
          <path fill="none" stroke="#058488" stroke-width="48" d="M4211.7062,-1961.1781C4741.8723,-2019.4912 5552.3997,-2108.6415 6029.7714,-2161.1478"/>
          <polygon fill="#058488" stroke="#058488" stroke-width="48" points="6149.3286,-2174.2979 6024.1441,-2214.8544 6087.119,-2191.0971 6027.4787,-2184.5372 6030.048,-2161.1781 6032.6173,-2137.819 6092.2576,-2144.3789 6035.9519,-2107.5018 6149.3286,-2174.2979 6149.3286,-2174.2979"/>
        </a>
      </g>
      <text text-anchor="middle" x="5180.6187" y="-2173" font-family="Helvetica,sans-Serif" font-size="100.00" fill="#000000">35</text>
    </g>
    <!-- 1&#45;&gt;10 -->
    <g id="edge3" class="edge">
      <title>1-&gt;10</title>
      <g id="a_edge3">
        <a xlink:title="Farm production / Able to save/store food">
          <path fill="none" stroke="#058488" stroke-width="9.7371" d="M4211.7716,-1816.3445C4326.659,-1796.9749 4449.4164,-1776.2784 4567.6104,-1756.3513"/>
          <polygon fill="#058488" stroke="#058488" stroke-width="9.7371" points="4615.2881,-1748.313 4571.3128,-1777.7493 4592.2216,-1756.6322 4568.4288,-1760.6436 4567.7025,-1756.3358 4566.9763,-1752.028 4590.769,-1748.0166 4564.0922,-1734.9223 4615.2881,-1748.313 4615.2881,-1748.313"/>
        </a>
      </g>
      <text text-anchor="middle" x="4347.5675" y="-1823" font-family="Helvetica,sans-Serif" font-size="100.00" fill="#000000">4</text>
    </g>
    <!-- 1&#45;&gt;12 -->
    <g id="edge4" class="edge">
      <title>1-&gt;12</title>
      <g id="a_edge4">
        <a xlink:title="Farm production / Food consumption quantity">
          <path fill="none" stroke="#058488" stroke-width="17.1429" d="M3759.1674,-2044.0096C3874.3736,-2267.656 4131.4339,-2702.5927 4483.3625,-2922 4751.9601,-3089.4552 4864.0971,-3067 5180.6187,-3067 5180.6187,-3067 5180.6187,-3067 7689.2887,-3067 8078.9187,-3067 8095.115,-2788.7602 8362.12,-2505 8530.0977,-2326.4812 8494.8667,-2210.2688 8689.3,-2061 8720.1159,-2037.3423 8753.1276,-2015.3971 8787.4656,-1995.0762"/>
          <polygon fill="#058488" stroke="#058488" stroke-width="17.1429" points="8841.9109,-1964.7206 8801.2518,-2019.4069 8818.703,-1986.9012 8791.5646,-2002.0321 8787.6341,-1994.9823 8783.7035,-1987.9326 8810.8419,-1972.8017 8774.0163,-1970.5578 8841.9109,-1964.7206 8841.9109,-1964.7206"/>
        </a>
      </g>
      <text text-anchor="middle" x="6419.3712" y="-3097" font-family="Helvetica,sans-Serif" font-size="100.00" fill="#000000">10</text>
    </g>
    <!-- 1&#45;&gt;14 -->
    <g id="edge5" class="edge">
      <title>1-&gt;14</title>
      <g id="a_edge5">
        <a xlink:title="Farm production / Diet improved; Diversified">
          <path fill="none" stroke="#058488" stroke-width="19.6114" d="M3856.123,-1763.7021C4008.8243,-1640.5653 4247.596,-1465.9614 4483.3625,-1366 4774.7735,-1242.4462 4864.0971,-1221 5180.6187,-1221 5180.6187,-1221 5180.6187,-1221 7689.2887,-1221 8090.634,-1221 8544.2593,-1215.2911 8886.5419,-1209.8265"/>
          <polygon fill="#058488" stroke="#058488" stroke-width="19.6114" points="8953.4653,-1208.7386 8887.1911,-1239.8672 8920.2353,-1218.5858 8886.854,-1219.1285 8886.7027,-1209.824 8886.5515,-1200.5195 8919.9328,-1199.9768 8886.2143,-1179.7808 8953.4653,-1208.7386 8953.4653,-1208.7386"/>
        </a>
      </g>
      <text text-anchor="middle" x="6419.3712" y="-1251" font-family="Helvetica,sans-Serif" font-size="100.00" fill="#000000">12</text>
    </g>
    <!-- 2&#45;&gt;1 -->
    <g id="edge6" class="edge">
      <title>2-&gt;1</title>
      <g id="a_edge6">
        <a xlink:title="Increased knowledge; Farming method/practice / Farm production">
          <path fill="none" stroke="#058488" stroke-width="35.6571" d="M1345.6642,-1708.9389C1863.0624,-1751.955 2572.156,-1810.9086 3075.0016,-1852.7148"/>
          <polygon fill="#058488" stroke="#058488" stroke-width="35.6571" points="3171.9137,-1860.772 3071.7784,-1896.1828 3122.2159,-1874.0285 3073.9539,-1870.016 3075.3896,-1852.747 3076.8254,-1835.478 3125.0874,-1839.4905 3079.0009,-1809.3111 3171.9137,-1860.772 3171.9137,-1860.772"/>
        </a>
      </g>
      <text text-anchor="middle" x="2258.805" y="-1861" font-family="Helvetica,sans-Serif" font-size="100.00" fill="#000000">25</text>
    </g>
    <!-- 2&#45;&gt;3 -->
    <g id="edge7" class="edge">
      <title>2-&gt;3</title>
      <g id="a_edge7">
        <a xlink:title="Increased knowledge; Farming method/practice / Planted new crop/vegetable varieties">
          <path fill="none" stroke="#058488" stroke-width="43.0629" d="M1345.7143,-1546.0836C1417.6716,-1534.6501 1490.9796,-1523.002 1563.1937,-1511.5277"/>
          <polygon fill="#058488" stroke="#058488" stroke-width="43.0629" points="1672.5722,-1494.1482 1571.0216,-1560.7434 1621.1872,-1523.6083 1566.5017,-1532.2974 1563.2014,-1511.5266 1559.901,-1490.7557 1614.5864,-1482.0665 1555.3811,-1462.3097 1672.5722,-1494.1482 1672.5722,-1494.1482"/>
        </a>
      </g>
      <text text-anchor="middle" x="1509.2525" y="-1557" font-family="Helvetica,sans-Serif" font-size="100.00" fill="#000000">31</text>
    </g>
    <!-- 3&#45;&gt;1 -->
    <g id="edge8" class="edge">
      <title>3-&gt;1</title>
      <g id="a_edge8">
        <a xlink:title="Planted new crop/vegetable varieties / Farm production">
          <path fill="none" stroke="#058488" stroke-width="34.4229" d="M2844.7328,-1598.7409C2918.6138,-1624.162 2993.1002,-1650.0292 3063.9475,-1675 3115.3895,-1693.1312 3169.1104,-1712.3248 3222.5389,-1731.5793"/>
          <polygon fill="#058488" stroke="#058488" stroke-width="34.4229" points="3311.7253,-1763.864 3208.3465,-1771.6877 3261.5883,-1763.4875 3217.1395,-1747.3974 3222.8276,-1731.6838 3228.5158,-1715.9702 3272.9646,-1732.0603 3237.3087,-1691.6799 3311.7253,-1763.864 3311.7253,-1763.864"/>
        </a>
      </g>
      <text text-anchor="middle" x="3008.3575" y="-1705" font-family="Helvetica,sans-Serif" font-size="100.00" fill="#000000">24</text>
    </g>
    <!-- 3&#45;&gt;14 -->
    <g id="edge9" class="edge">
      <title>3-&gt;14</title>
      <g id="a_edge9">
        <a xlink:title="Planted new crop/vegetable varieties / Diet improved; Diversified">
          <path fill="none" stroke="#058488" stroke-width="13.44" d="M2612.6686,-1185.8224C2894.5533,-1034.9107 3304.7616,-860 3691.86,-860 3691.86,-860 3691.86,-860 7689.2887,-860 8101.4841,-860 8558.7019,-953.8897 8899.7977,-1042.9918"/>
          <polygon fill="#058488" stroke="#058488" stroke-width="13.44" points="8953.253,-1057.1641 8893.5306,-1067.0283 8924.9807,-1056.1033 8898.3024,-1049.0302 8899.8964,-1043.0179 8901.4904,-1037.0056 8928.1687,-1044.0787 8906.2622,-1019.0074 8953.253,-1057.1641 8953.253,-1057.1641"/>
        </a>
      </g>
      <text text-anchor="middle" x="6013.67" y="-890" font-family="Helvetica,sans-Serif" font-size="100.00" fill="#000000">7</text>
    </g>
    <!-- 4&#45;&gt;5 -->
    <g id="edge10" class="edge">
      <title>4-&gt;5</title>
      <g id="a_edge10">
        <a xlink:title="Produced enough food to eat and/or sell / Income">
          <path fill="none" stroke="#058488" stroke-width="10.9714" d="M5798.6341,-2419.9735C5903.6137,-2383.4479 6008.6455,-2346.9041 6101.6661,-2314.5394"/>
          <polygon fill="#058488" stroke="#058488" stroke-width="10.9714" points="6149.5088,-2297.8934 6109.224,-2336.0051 6127.2657,-2310.9114 6103.3842,-2319.2205 6101.7458,-2314.5117 6100.1074,-2309.8029 6123.9889,-2301.4937 6094.2676,-2293.0184 6149.5088,-2297.8934 6149.5088,-2297.8934"/>
        </a>
      </g>
      <text text-anchor="middle" x="6013.67" y="-2373" font-family="Helvetica,sans-Serif" font-size="100.00" fill="#000000">5</text>
    </g>
    <!-- 5&#45;&gt;6 -->
    <g id="edge11" class="edge">
      <title>5-&gt;6</title>
      <g id="a_edge11">
        <a xlink:title="Income / Increase purchasing power">
          <path fill="none" stroke="#058488" stroke-width="18.3771" d="M6689.4651,-2206.9776C6780.903,-2207.9856 6887.6211,-2209.1621 6996.6263,-2210.3639"/>
          <polygon fill="#058488" stroke="#058488" stroke-width="18.3771" points="7061.4322,-2211.0783 6996.6592,-2239.3716 7029.1098,-2219.411 6996.8832,-2219.0557 6996.979,-2210.3676 6997.0748,-2201.6796 7029.3014,-2202.0349 6997.2988,-2181.3637 7061.4322,-2211.0783 7061.4322,-2211.0783"/>
        </a>
      </g>
      <text text-anchor="middle" x="6852.8675" y="-2239" font-family="Helvetica,sans-Serif" font-size="100.00" fill="#000000">11</text>
    </g>
    <!-- 5&#45;&gt;9 -->
    <g id="edge12" class="edge">
      <title>5-&gt;9</title>
      <g id="a_edge12">
        <a xlink:title="Income / Ability to buy food">
          <path fill="none" stroke="#058488" stroke-width="23.3143" d="M6689.4428,-2071.9496C6790.8215,-2024.6621 6907.8065,-1972.7722 7016.4575,-1931 7059.1575,-1914.5834 7103.7213,-1898.4441 7148.6958,-1882.8506"/>
          <polygon fill="#058488" stroke="#058488" stroke-width="23.3143" points="7218.8887,-1859.0374 7159.7392,-1914.1325 7187.5699,-1881.4442 7152.6667,-1893.2853 7149.0822,-1882.7196 7145.4977,-1872.1539 7180.401,-1860.3128 7138.4252,-1851.3067 7218.8887,-1859.0374 7218.8887,-1859.0374"/>
        </a>
      </g>
      <text text-anchor="middle" x="6852.8675" y="-2051" font-family="Helvetica,sans-Serif" font-size="100.00" fill="#000000">15</text>
    </g>
    <!-- 8&#45;&gt;7 -->
    <g id="edge13" class="edge">
      <title>8-&gt;7</title>
      <g id="a_edge13">
        <a xlink:title="Health behaviour; Wash food before cooking/eating / Improved health">
          <path fill="none" stroke="#058488" stroke-width="12.2057" d="M10152.9587,-2242.9872C10226.8524,-2224.8115 10301.0804,-2206.5536 10372.831,-2188.905"/>
          <polygon fill="#058488" stroke="#058488" stroke-width="12.2057" points="10424.2805,-2176.2499 10378.6099,-2211.9916 10399.9413,-2188.0066 10374.2638,-2194.3225 10372.9255,-2188.8818 10371.5872,-2183.4412 10397.2647,-2177.1252 10367.2411,-2165.7721 10424.2805,-2176.2499 10424.2805,-2176.2499"/>
        </a>
      </g>
      <text text-anchor="middle" x="10288.72" y="-2244" font-family="Helvetica,sans-Serif" font-size="100.00" fill="#000000">6</text>
    </g>
    <!-- 9&#45;&gt;12 -->
    <g id="edge14" class="edge">
      <title>9-&gt;12</title>
      <g id="a_edge14">
        <a xlink:title="Ability to buy food / Food consumption quantity">
          <path fill="none" stroke="#058488" stroke-width="18.3771" d="M8247.6771,-1736.7335C8416.4654,-1742.094 8603.1702,-1748.0234 8777.0728,-1753.5463"/>
          <polygon fill="#058488" stroke="#058488" stroke-width="18.3771" points="8841.7665,-1755.6009 8776.421,-1782.5459 8809.2783,-1763.262 8777.066,-1762.239 8777.3418,-1753.5548 8777.6176,-1744.8706 8809.8299,-1745.8936 8778.2626,-1724.5637 8841.7665,-1755.6009 8841.7665,-1755.6009"/>
        </a>
      </g>
      <text text-anchor="middle" x="8525.71" y="-1776" font-family="Helvetica,sans-Serif" font-size="100.00" fill="#000000">11</text>
    </g>
    <!-- 9&#45;&gt;14 -->
    <g id="edge15" class="edge">
      <title>9-&gt;14</title>
      <g id="a_edge15">
        <a xlink:title="Ability to buy food / Diet improved; Diversified">
          <path fill="none" stroke="#058488" stroke-width="19.6114" d="M8156.519,-1578.9785C8382.5965,-1511.2267 8655.057,-1429.5746 8889.0917,-1359.4382"/>
          <polygon fill="#058488" stroke="#058488" stroke-width="19.6114" points="8953.2201,-1340.2199 8897.8847,-1388.1705 8923.911,-1358.718 8891.9305,-1368.3021 8889.2591,-1359.3881 8886.5877,-1350.474 8918.5682,-1340.89 8880.6334,-1330.6056 8953.2201,-1340.2199 8953.2201,-1340.2199"/>
        </a>
      </g>
      <text text-anchor="middle" x="8525.71" y="-1505" font-family="Helvetica,sans-Serif" font-size="100.00" fill="#000000">12</text>
    </g>
    <!-- 13&#45;&gt;11 -->
    <g id="edge16" class="edge">
      <title>13-&gt;11</title>
      <g id="a_edge16">
        <a xlink:title="Increased knowledge; Nutrition / Diet improved; Diversified refers:infants">
          <path fill="none" stroke="#058488" stroke-width="15.9086" d="M8361.9557,-290C8538.3304,-290 8725.9766,-290 8893.5589,-290"/>
          <polygon fill="#058488" stroke="#058488" stroke-width="15.9086" points="8953.4367,-290 8893.6082,-316.923 8923.5224,-297.4543 8893.6081,-297.4544 8893.6081,-290.0001 8893.6081,-282.5458 8923.5224,-282.5458 8893.6081,-263.0772 8953.4367,-290 8953.4367,-290"/>
        </a>
      </g>
      <text text-anchor="middle" x="8525.71" y="-320" font-family="Helvetica,sans-Serif" font-size="100.00" fill="#000000">9</text>
    </g>
    <!-- 13&#45;&gt;13 -->
    <g id="edge17" class="edge">
      <title>13-&gt;13</title>
      <g id="a_edge17">
        <a xlink:title="Increased knowledge; Nutrition / Increased knowledge; Nutrition">
          <path fill="none" stroke="#058488" stroke-width="15.9086" d="M7532.8024,-505.0997C7528.3405,-584.1578 7580.5026,-649 7689.2887,-649 7768.9661,-649 7818.2679,-614.2159 7837.1943,-564.539"/>
          <polygon fill="#058488" stroke="#058488" stroke-width="15.9086" points="7845.7751,-505.0997 7863.8732,-568.1612 7848.8786,-535.7722 7844.6044,-565.3795 7837.2266,-564.3144 7829.8488,-563.2494 7834.123,-533.642 7810.58,-560.4677 7845.7751,-505.0997 7845.7751,-505.0997"/>
        </a>
      </g>
      <text text-anchor="middle" x="7689.2887" y="-679" font-family="Helvetica,sans-Serif" font-size="100.00" fill="#000000">9</text>
    </g>
    <!-- 13&#45;&gt;14 -->
    <g id="edge18" class="edge">
      <title>13-&gt;14</title>
      <g id="a_edge18">
        <a xlink:title="Increased knowledge; Nutrition / Diet improved; Diversified">
          <path fill="none" stroke="#058488" stroke-width="19.6114" d="M8307.7768,-505.0845C8401.0049,-543.5957 8494.8258,-585.9461 8581.3,-631 8754.4519,-721.2137 8935.1304,-840.0005 9084.3445,-945.6946"/>
          <polygon fill="#058488" stroke="#058488" stroke-width="19.6114" points="9138.8647,-984.7187 9067.0801,-970.2883 9106.3005,-972.8539 9079.1525,-953.4222 9084.5688,-945.8551 9089.9851,-938.2881 9117.133,-957.7198 9102.0574,-921.4219 9138.8647,-984.7187 9138.8647,-984.7187"/>
        </a>
      </g>
      <text text-anchor="middle" x="8525.71" y="-661" font-family="Helvetica,sans-Serif" font-size="100.00" fill="#000000">12</text>
    </g>
    <!-- 14&#45;&gt;7 -->
    <g id="edge19" class="edge">
      <title>14-&gt;7</title>
      <g id="a_edge19">
        <a xlink:title="Diet improved; Diversified / Improved health">
          <path fill="none" stroke="#058488" stroke-width="12.2057" d="M9889.1843,-1363.479C9978.5741,-1400.2779 10070.0502,-1441.9325 10152.925,-1487 10358.8597,-1598.9876 10573.8938,-1756.5856 10726.66,-1876.5685"/>
          <polygon fill="#058488" stroke="#058488" stroke-width="12.2057" points="10768.53,-1909.7368 10712.2977,-1895.5521 10744.3236,-1897.709 10723.5963,-1881.2894 10727.0754,-1876.8975 10730.5545,-1872.5057 10751.2818,-1888.9253 10741.853,-1858.2429 10768.53,-1909.7368 10768.53,-1909.7368"/>
        </a>
      </g>
      <text text-anchor="middle" x="10288.72" y="-1610" font-family="Helvetica,sans-Serif" font-size="100.00" fill="#000000">6</text>
    </g>
  </g>
</svg>
