<?xml version="1.0" encoding="UTF-8" standalone="no"?>
<!DOCTYPE svg PUBLIC "-//W3C//DTD SVG 1.1//EN" "http://www.w3.org/Graphics/SVG/1.1/DTD/svg11.dtd">
<!-- Generated by graphviz version 2.40.1 (20161225.0304)
 -->
<!-- Title: %0 Pages: 1 -->
<svg xmlns="http://www.w3.org/2000/svg" xmlns:xlink="http://www.w3.org/1999/xlink" width="4969pt" height="1188pt" viewBox="0.00 0.00 4968.68 1188.00">
  <g id="graph0" class="graph" transform="scale(1 1) rotate(0) translate(4 1184)">
    <title>%0</title>
    <g id="a_graph0">
      <a xlink:title=" ">
        <polygon fill="#ffffff" stroke="transparent" points="-4,4 -4,-1184 4964.685,-1184 4964.685,4 -4,4"/>
<text text-anchor="left" x="6" y="-6" font-family="Helvetica,sans-Serif" font-size="55.00" fill="#ababab">4426</text>
      </a>
    </g>
    <!-- 1 -->
    <g id="node1" class="node">
      <title>1</title>
      <path fill="#ffffff" stroke="#ffffff" stroke-width="14" d="M2544.7213,-1128C2544.7213,-1128 1694.9962,-1128 1694.9962,-1128 1688.9962,-1128 1682.9962,-1122 1682.9962,-1116 1682.9962,-1116 1682.9962,-860 1682.9962,-860 1682.9962,-854 1688.9962,-848 1694.9962,-848 1694.9962,-848 2544.7213,-848 2544.7213,-848 2550.7213,-848 2556.7213,-854 2556.7213,-860 2556.7213,-860 2556.7213,-1116 2556.7213,-1116 2556.7213,-1122 2550.7213,-1128 2544.7213,-1128"/>
      <text text-anchor="middle" x="2119.8587" y="-950.5" font-family="Helvetica,sans-Serif" font-size="125.00" fill="#000000">Broken taboo</text>
    </g>
    <!-- 2 -->
    <g id="node2" class="node">
      <title>2</title>
      <path fill="#ffffff" stroke="#ffffff" stroke-width="14" d="M2558.2088,-704C2558.2088,-704 1681.5087,-704 1681.5087,-704 1675.5087,-704 1669.5087,-698 1669.5087,-692 1669.5087,-692 1669.5087,-436 1669.5087,-436 1669.5087,-430 1675.5087,-424 1681.5087,-424 1681.5087,-424 2558.2088,-424 2558.2088,-424 2564.2088,-424 2570.2088,-430 2570.2088,-436 2570.2088,-436 2570.2088,-692 2570.2088,-692 2570.2088,-698 2564.2088,-704 2558.2088,-704"/>
      <text text-anchor="middle" x="2119.8587" y="-526.5" font-family="Helvetica,sans-Serif" font-size="125.00" fill="#000000">Diet improved</text>
    </g>
    <!-- 3 -->
    <g id="node3" class="node">
      <title>3</title>
      <path fill="#ffffff" stroke="#ffffff" stroke-width="14" d="M2645.0463,-280C2645.0463,-280 1594.6712,-280 1594.6712,-280 1588.6712,-280 1582.6712,-274 1582.6712,-268 1582.6712,-268 1582.6712,-12 1582.6712,-12 1582.6712,-6 1588.6712,0 1594.6712,0 1594.6712,0 2645.0463,0 2645.0463,0 2651.0463,0 2657.0463,-6 2657.0463,-12 2657.0463,-12 2657.0463,-268 2657.0463,-268 2657.0463,-274 2651.0463,-280 2645.0463,-280"/>
      <text text-anchor="middle" x="2119.8587" y="-102.5" font-family="Helvetica,sans-Serif" font-size="125.00" fill="#000000">Health behaviour</text>
    </g>
    <!-- 4 -->
    <g id="node4" class="node">
      <title>4</title>
      <path fill="#7fc97f" stroke="#ffffff" stroke-width="14" d="M3998.495,-414C3998.495,-414 2996.345,-414 2996.345,-414 2990.345,-414 2984.345,-408 2984.345,-402 2984.345,-402 2984.345,-146 2984.345,-146 2984.345,-140 2990.345,-134 2996.345,-134 2996.345,-134 3998.495,-134 3998.495,-134 4004.495,-134 4010.495,-140 4010.495,-146 4010.495,-146 4010.495,-402 4010.495,-402 4010.495,-408 4004.495,-414 3998.495,-414"/>
      <text text-anchor="middle" x="3497.42" y="-236.5" font-family="Helvetica,sans-Serif" font-size="125.00" fill="#000000">Improved health</text>
    </g>
    <!-- 5 -->
    <g id="node5" class="node">
      <title>5</title>
      <path fill="#ffffff" stroke="#ffffff" stroke-width="14" d="M1298.8875,-916C1298.8875,-916 12.0375,-916 12.0375,-916 6.0375,-916 .0375,-910 .0375,-904 .0375,-904 .0375,-648 .0375,-648 .0375,-642 6.0375,-636 12.0375,-636 12.0375,-636 1298.8875,-636 1298.8875,-636 1304.8875,-636 1310.8875,-642 1310.8875,-648 1310.8875,-648 1310.8875,-904 1310.8875,-904 1310.8875,-910 1304.8875,-916 1298.8875,-916"/>
      <text text-anchor="middle" x="655.4625" y="-738.5" font-family="Helvetica,sans-Serif" font-size="125.00" fill="#000000">Increased knowledge</text>
    </g>
    <!-- 6 -->
    <g id="node6" class="node">
      <title>6</title>
      <path fill="#ffffff" stroke="#ffffff" stroke-width="14" d="M4948.5038,-414C4948.5038,-414 4294.2287,-414 4294.2287,-414 4288.2287,-414 4282.2287,-408 4282.2287,-402 4282.2287,-402 4282.2287,-146 4282.2287,-146 4282.2287,-140 4288.2287,-134 4294.2287,-134 4294.2287,-134 4948.5038,-134 4948.5038,-134 4954.5038,-134 4960.5038,-140 4960.5038,-146 4960.5038,-146 4960.5038,-402 4960.5038,-402 4960.5038,-408 4954.5038,-414 4948.5038,-414"/>
      <text text-anchor="middle" x="4621.3662" y="-236.5" font-family="Helvetica,sans-Serif" font-size="125.00" fill="#000000">Wellbeing</text>
    </g>
    <!-- 2&#45;&gt;4 -->
    <g id="edge1" class="edge">
      <title>2-&gt;4</title>
      <g id="a_edge1">
        <a xlink:title="Diet improved / Improved health">
          <path fill="none" stroke="#058488" stroke-width="14.4" d="M2570.4471,-469.1435C2684.7352,-445.0839 2809.0015,-418.9238 2928.3239,-393.8044"/>
          <polygon fill="#058488" stroke="#058488" stroke-width="14.4" points="2984.1233,-382.0577 2933.6298,-418.8997 2957.6148,-394.4851 2929.726,-400.3561 2928.3458,-393.7998 2926.9656,-387.2435 2954.8543,-381.3725 2923.0618,-368.7 2984.1233,-382.0577 2984.1233,-382.0577"/>
        </a>
      </g>
      <text text-anchor="middle" x="2820.7925" y="-458" font-family="Helvetica,sans-Serif" font-size="100.00" fill="#000000">4</text>
    </g>
    <!-- 3&#45;&gt;4 -->
    <g id="edge2" class="edge">
      <title>3-&gt;4</title>
      <g id="a_edge2">
        <a xlink:title="Health behaviour / Improved health">
          <path fill="none" stroke="#058488" stroke-width="48" d="M2657.2961,-167.3564C2711.914,-171.2883 2767.0456,-175.7034 2864.5531,-185.5185"/>
          <polygon fill="#058488" stroke="#058488" stroke-width="48" points="2983.9641,-197.9833 2859.0062,-239.2328 2921.8486,-215.127 2862.1728,-208.8977 2864.6126,-185.5247 2867.0524,-162.1517 2926.7282,-168.3809 2870.219,-131.8165 2983.9641,-197.9833 2983.9641,-197.9833"/>
        </a>
      </g>
      <text text-anchor="middle" x="2820.7925" y="-216" font-family="Helvetica,sans-Serif" font-size="100.00" fill="#000000">18</text>
    </g>
    <!-- 4&#45;&gt;6 -->
    <g id="edge3" class="edge">
      <title>4-&gt;6</title>
      <g id="a_edge3">
        <a xlink:title="Improved health / Wellbeing">
          <path fill="none" stroke="#058488" stroke-width="16.8" d="M4010.4677,-274C4080.8291,-274 4152.2213,-274 4220.1872,-274"/>
          <polygon fill="#058488" stroke="#058488" stroke-width="16.8" points="4281.8412,-274 4220.3413,-301.6751 4251.0913,-281.9 4220.3413,-281.9001 4220.3412,-274.0001 4220.3412,-266.1001 4251.0912,-266.1 4220.3412,-246.3251 4281.8412,-274 4281.8412,-274"/>
        </a>
      </g>
      <text text-anchor="middle" x="4146.2525" y="-304" font-family="Helvetica,sans-Serif" font-size="100.00" fill="#000000">5</text>
    </g>
    <!-- 5&#45;&gt;1 -->
    <g id="edge4" class="edge">
      <title>5-&gt;1</title>
      <g id="a_edge4">
        <a xlink:title="Increased knowledge / Broken taboo">
          <path fill="none" stroke="#058488" stroke-width="19.2" d="M1311.0975,-870.916C1413.9519,-885.8062 1518.8438,-900.9913 1617.5349,-915.2788"/>
          <polygon fill="#058488" stroke="#058488" stroke-width="19.2" points="1683.0815,-924.7679 1613.5071,-944.7052 1649.1181,-929.0459 1616.4586,-924.3178 1617.7624,-915.3117 1619.0663,-906.3055 1651.7258,-911.0337 1622.0178,-885.9181 1683.0815,-924.7679 1683.0815,-924.7679"/>
        </a>
      </g>
      <text text-anchor="middle" x="1446.72" y="-918" font-family="Helvetica,sans-Serif" font-size="100.00" fill="#000000">6</text>
    </g>
    <!-- 5&#45;&gt;2 -->
    <g id="edge5" class="edge">
      <title>5-&gt;2</title>
      <g id="a_edge5">
        <a xlink:title="Increased knowledge / Diet improved">
          <path fill="none" stroke="#058488" stroke-width="26.4" d="M1311.0975,-681.084C1404.5933,-667.5487 1499.7727,-653.7696 1590.4478,-640.6426"/>
          <polygon fill="#058488" stroke="#058488" stroke-width="26.4" points="1669.2459,-629.235 1595.6919,-676.0314 1631.7256,-647.4993 1592.3857,-653.1945 1590.5661,-640.6255 1588.7465,-628.0566 1628.0864,-622.3613 1585.4404,-605.2196 1669.2459,-629.235 1669.2459,-629.235"/>
        </a>
      </g>
      <text text-anchor="middle" x="1446.72" y="-693" font-family="Helvetica,sans-Serif" font-size="100.00" fill="#000000">9</text>
    </g>
    <!-- 5&#45;&gt;5 -->
    <g id="edge6" class="edge">
      <title>5-&gt;5</title>
      <g id="a_edge6">
        <a xlink:title="Increased knowledge / Increased knowledge">
          <path fill="none" stroke="#058488" stroke-width="21.6" d="M513.4491,-916.2781C489.3161,-991.4845 536.6539,-1060 655.4625,-1060 734.5909,-1060 782.0165,-1029.6081 797.7393,-987.0891"/>
          <polygon fill="#058488" stroke="#058488" stroke-width="21.6" points="797.4759,-916.2781 829.463,-986.6596 807.907,-951.4895 808.0381,-986.7393 797.7382,-986.7776 787.4383,-986.8159 787.3071,-951.5662 766.0134,-986.8957 797.4759,-916.2781 797.4759,-916.2781"/>
        </a>
      </g>
      <text text-anchor="middle" x="655.4625" y="-1090" font-family="Helvetica,sans-Serif" font-size="100.00" fill="#000000">7</text>
    </g>
  </g>
</svg>
